<svg version="1.1" id="Layer_1" xmlns="http://www.w3.org/2000/svg" xmlns:xlink="http://www.w3.org/1999/xlink" x="0px" y="0px"
	 width="100%" viewBox="0 0 1024 544" enable-background="new 0 0 1024 544" xml:space="preserve">
<path fill="#9CA3AF" opacity="1.000000" stroke="none" 
	d="
M424.095001,483.010315 
	C391.120697,466.887421 362.933167,445.172516 339.842682,417.112488 
	C334.157623,410.203918 328.442505,402.812103 324.957916,394.691284 
	C311.902985,364.266907 297.694122,334.020905 297.809570,299.810730 
	C297.821442,296.294373 295.702606,294.478210 293.912048,292.179199 
	C289.253967,286.198547 291.420654,279.246460 291.949585,272.893982 
	C293.695648,251.923325 298.305481,231.576675 306.089020,211.883484 
	C315.882416,187.105133 329.646820,164.957108 347.245789,145.027023 
	C378.098511,110.087662 417.079529,89.122162 461.761810,77.789391 
	C476.338104,74.092407 491.192291,71.330719 506.155518,71.897041 
	C550.454712,73.573654 592.503479,83.362007 629.575439,109.227249 
	C631.089905,110.283897 633.118774,110.961655 633.609680,113.322159 
	C631.091003,113.872818 629.633057,112.233147 628.113708,111.161522 
	C614.812012,101.779800 600.350098,94.368324 584.954285,89.588455 
	C576.715149,87.030472 568.019958,84.835281 559.000061,84.246033 
	C585.272522,92.518112 610.303467,103.166107 633.209534,120.647812 
	C636.860229,105.991974 640.240967,92.419914 643.621704,78.847862 
	C644.218689,78.789177 644.815674,78.730492 645.412720,78.671814 
	C656.332153,113.059494 667.251587,147.447174 678.087097,181.570480 
	C675.619629,184.224411 672.760864,182.422272 670.512451,183.611725 
	C670.094788,185.535065 671.662659,186.593094 672.493835,187.937576 
	C688.430359,213.718307 698.458130,241.452133 700.326843,271.893951 
	C704.896301,279.397278 703.135803,287.700775 703.108032,295.706146 
	C703.068115,307.247131 701.978088,318.735748 699.866272,330.105438 
	C698.525330,337.325043 696.433167,344.328339 693.863647,351.199036 
	C693.239136,352.868866 692.792847,354.385193 693.300659,356.410339 
	C693.955139,359.020355 692.633484,361.774414 691.063110,363.880707 
	C681.889832,376.184937 675.769836,390.339142 667.055176,402.961304 
	C662.068909,410.183197 656.473877,416.825134 651.131897,423.712616 
	C650.673279,424.303894 649.787781,424.712799 650.228882,426.183136 
	C657.859436,419.260223 663.928589,411.185425 671.226868,404.248596 
	C663.818665,415.471649 654.895203,425.411407 645.730530,435.277954 
	C650.043152,431.257782 654.355774,427.237610 658.668396,423.217438 
	C659.060669,423.726868 659.452942,424.236267 659.845276,424.745697 
	C641.238037,445.231537 619.328552,461.266327 593.856628,472.599762 
	C568.502808,483.880615 541.783630,489.103790 513.034790,490.254150 
	C520.479065,494.653870 563.052490,487.965027 584.009277,480.081604 
	C606.395325,471.660461 626.395325,459.211548 645.614319,445.122864 
	C645.419006,449.939056 641.613403,451.913300 638.193481,455.785126 
	C642.336182,454.173676 643.999573,450.697388 648.184509,450.288391 
	C645.202942,454.404083 641.525940,456.642944 638.273926,459.238525 
	C631.102417,464.962585 623.256470,469.712311 615.195129,474.087219 
	C613.567078,474.970734 612.467163,475.941681 610.118225,474.054993 
	C607.154785,471.674744 605.216736,476.204285 602.273743,476.902313 
	C605.870728,479.952240 602.520813,480.535828 601.024170,481.229095 
	C591.045471,485.851349 580.845215,489.961304 570.178040,492.694458 
	C553.213196,497.041290 535.868530,498.644135 518.470276,500.471252 
	C485.236969,503.961304 454.629150,495.167633 424.095001,483.010315 
M412.369080,173.890762 
	C408.938629,176.796112 405.351135,179.536942 402.104797,182.635239 
	C387.859406,196.230896 377.908112,212.640961 371.022186,230.971100 
	C362.118347,254.672897 358.164764,279.143036 360.448761,304.432709 
	C361.330597,314.196777 362.310211,324.077271 366.370789,333.160889 
	C374.400116,351.122559 382.659668,369.044952 395.933533,383.902252 
	C406.603210,395.844818 417.700897,407.767365 432.059113,415.113495 
	C451.610168,425.116486 471.698975,434.183990 494.118622,436.168976 
	C501.650818,436.835846 509.275116,438.920929 516.603577,439.028778 
	C534.179993,439.287476 551.182861,434.897308 567.570740,428.298218 
	C618.413513,407.824615 649.858215,370.485413 663.694946,317.880432 
	C665.152649,312.338409 667.857483,307.445435 669.913147,302.118439 
	C672.549072,307.509705 669.199524,312.913696 670.519714,318.423950 
	C671.297546,318.244049 672.628174,318.272400 672.791626,317.849609 
	C677.625305,305.345673 676.210144,291.637268 680.397827,278.352600 
	C683.235046,284.429993 681.411682,290.683899 683.103638,296.395020 
	C685.120850,278.533295 683.500977,260.834778 680.629639,243.131729 
	C685.792847,251.696838 685.751099,261.600128 688.809753,270.671387 
	C690.542908,254.593475 685.866455,239.439438 682.562439,224.017639 
	C687.537292,232.186523 689.241394,241.441223 691.253296,250.482681 
	C693.310791,259.728882 694.011169,269.207977 694.706848,278.694092 
	C695.386292,287.958649 693.563721,297.223145 695.136597,306.446472 
	C695.921692,301.671753 696.528198,296.895660 696.667358,292.105988 
	C697.281433,270.966156 694.612122,250.222046 688.544800,229.959686 
	C684.030273,214.882797 677.562622,200.659424 669.181091,187.321655 
	C667.510559,184.663269 665.563416,182.962372 661.979675,182.994446 
	C633.661194,183.247879 605.336121,182.798431 577.025269,183.906906 
	C575.297791,183.974548 573.343933,184.572998 571.421265,182.258850 
	C581.588684,174.147888 591.708801,166.074631 601.950439,157.904434 
	C567.678223,134.722794 541.781433,131.990021 519.279907,131.689301 
	C522.723816,132.147568 526.097168,132.218185 529.310608,134.417496 
	C485.955841,134.234421 445.941071,143.539001 412.369080,173.890762 
M321.945587,366.480072 
	C317.842621,357.086700 312.831848,348.133972 310.525909,337.925476 
	C308.302612,328.083008 306.166595,318.233673 304.471497,308.276886 
	C304.803284,315.164124 304.114441,321.986664 306.484131,328.809845 
	C309.636261,337.886078 311.168304,347.516449 314.162109,356.657959 
	C320.718842,376.678619 332.571991,393.686310 345.666382,409.900146 
	C345.985291,410.295044 346.402283,411.172424 347.335571,410.111603 
	C338.296570,396.230804 328.494934,382.727081 321.945587,366.480072 
z"/>
<path fill="#9CA3AF" opacity="1.000000" stroke="none" 
	d="
M292.115356,310.567139 
	C291.851501,305.135498 290.795380,300.144348 292.249847,295.075256 
	C294.012817,308.199951 297.634918,321.005402 298.044739,335.076965 
	C294.956787,332.684845 295.620819,329.591034 294.861420,327.158020 
	C294.081848,324.660431 294.004272,321.946289 293.588928,319.331787 
	C293.147736,316.554382 292.670654,313.782684 292.115356,310.567139 
z"/>
<path fill="#9CA3AF" opacity="1.000000" stroke="none" 
	d="
M696.397095,363.231445 
	C693.489441,370.180511 690.526184,376.661896 686.783569,382.717407 
	C686.320862,382.488953 685.858093,382.260498 685.395325,382.032043 
	C689.948181,371.803497 694.500977,361.574951 699.053772,351.346436 
	C699.952454,355.672394 697.242065,359.015991 696.397095,363.231445 
z"/>
<path fill="#9CA3AF" opacity="1.000000" stroke="none" 
	d="
M684.478149,400.496948 
	C688.365234,395.151672 690.680542,389.170624 695.677185,384.988373 
	C692.041443,394.240173 686.463623,402.276215 679.977112,409.766052 
	C679.485901,405.776825 682.856445,403.779297 684.478149,400.496948 
z"/>
<path fill="#9CA3AF" opacity="1.000000" stroke="none" 
	d="
M686.915222,403.900513 
	C689.742004,399.497955 692.385437,395.403961 695.028870,391.309937 
	C695.478333,391.611694 695.927795,391.913483 696.377319,392.215240 
	C693.203369,399.998138 688.364441,406.709808 682.372437,412.699432 
	C682.287354,409.014435 685.202332,406.985870 686.915222,403.900513 
z"/>
<path fill="#9CA3AF" opacity="1.000000" stroke="none" 
	d="
M696.833618,388.028595 
	C699.722717,383.054779 701.391541,377.695160 705.292419,373.628418 
	C704.263977,379.391571 701.642273,384.404358 698.307617,389.054352 
	C697.731201,389.858124 696.831421,389.515503 696.833618,388.028595 
z"/>
<path fill="#9CA3AF" opacity="1.000000" stroke="none" 
	d="
M662.030579,431.026703 
	C663.700623,425.768738 667.634216,422.398834 671.781006,419.201569 
	C670.315613,424.328003 666.439514,427.479767 662.285889,430.818481 
	C662.009888,431.006653 662.030579,431.026703 662.030579,431.026703 
z"/>
<path fill="#9CA3AF" opacity="1.000000" stroke="none" 
	d="
M675.609680,396.448120 
	C677.945496,393.807770 678.722595,390.317383 682.155029,388.969818 
	C680.495972,393.363190 678.096680,397.243439 674.239136,400.681580 
	C673.151428,398.618317 674.911255,397.848969 675.609680,396.448120 
z"/>
<path fill="#9CA3AF" opacity="1.000000" stroke="none" 
	d="
M675.121460,423.801086 
	C672.890869,426.978851 670.535583,429.616974 666.502747,432.246460 
	C668.350464,427.754395 670.590515,425.010437 673.276001,422.620026 
	C674.318481,421.692139 675.464172,421.333984 675.121460,423.801086 
z"/>
<path fill="#9CA3AF" opacity="1.000000" stroke="none" 
	d="
M662.002563,430.995239 
	C659.772400,434.008545 657.803040,437.298370 653.679321,438.363190 
	C655.140625,434.882233 657.249939,432.032440 661.666504,431.042847 
	C662.030579,431.026703 662.009888,431.006653 662.002563,430.995239 
z"/>
<path fill="#9CA3AF" opacity="1.000000" stroke="none" 
	d="
M698.427734,376.632233 
	C699.334106,375.134064 699.779480,373.656006 701.891846,372.949188 
	C701.271606,376.906433 699.864746,379.878754 696.997192,382.849640 
	C695.738586,379.950195 697.803650,378.646332 698.427734,376.632233 
z"/>
</svg>